<?xml version="1.0" encoding="UTF-8"?>
<svg id="Layer_1" xmlns="http://www.w3.org/2000/svg" viewBox="0 0 398.68 152.24">
  <defs>
    <style>
      .cls-1 {
        fill: #231f20;
      }
    </style>
  </defs>
  <path class="cls-1" d="M398.68,12C265.09,13.53,136.25,56.36,2.7,58.51,1.62,53.71,1.08,51.32,0,46.52,134.49,44.96,264.19,1.56,398.68,0c0,4.8,0,7.2,0,12Z"/>
  <g>
    <path d="M21.04,139.87c1.08,4.76,1.62,7.14,2.7,11.9,50.65-2.46,100.54-9.89,150.48-18.41,0-4.8,0-7.2,0-12-50.84,8.67-101.61,16.2-153.18,18.51Z"/>
    <path d="M398.68,93.72c-65.35.75-129.52,11.09-193.76,22.28v12c64.24-11.2,128.41-21.54,193.76-22.28,0-4.8,0-7.2,0-12Z"/>
  </g>
  <g>
    <path class="cls-1" d="M34.31,131.69c-6.02.33-9.04.47-15.06.66-4.97-22.1-9.92-44.21-14.87-66.32,6.95-.05,10.43-.13,17.38-.38,2.41,13.16,4.82,26.32,7.24,39.47,3.93-13.48,7.86-26.95,11.78-40.43,5.6-.36,8.4-.57,14-1.03,4.01,12.99,8.04,25.98,12.07,38.97,2.42-13.6,4.83-27.2,7.24-40.8,6.95-.74,10.43-1.14,17.38-2-4.95,22.78-9.91,45.56-14.87,68.34-6.06.66-9.09.96-15.16,1.52-4.55-13.97-9.08-27.95-13.61-41.93-4.5,14.65-9,29.29-13.52,43.93Z"/>
    <path class="cls-1" d="M110.49,94.48c3.44-.48,5.16-.73,8.59-1.23v-1.45c0-4.73-.87-6.42-7.63-5.47-4.15.59-6.08,1.62-7.82,4.36-4.05-2.27-6.08-3.42-10.14-5.73,3.77-6.46,9.5-9.09,19.6-10.64,11.47-1.77,20.76,2.4,20.08,15.44v30.8c-5.64.88-8.46,1.31-14.1,2.13v-3.96c-1.64,2.85-4.25,5.55-9.56,6.29-9.46,1.32-16.8-2.99-16.8-13.13s7.72-16.01,17.76-17.42ZM119.08,103.48c-2.63.39-3.94.57-6.56.95-3.67.52-5.7,2.05-5.7,5.24,0,2.8,2.22,4.04,5.89,3.52,4.83-.69,6.37-3.82,6.37-8.26v-1.45Z"/>
    <path class="cls-1" d="M167.93,81.46c-.87-1.3-2.22-3.1-5.02-2.62-4.15.7-6.56,4-6.56,10.47v27.51c-5.79.97-8.69,1.44-14.48,2.37v-48.27c5.64-.9,8.46-1.37,14.1-2.31v3.67c1.45-2.08,4.63-5.41,10.14-6.34,5.5-.94,9.85,1.02,12.65,5.94-4.33,3.84-6.49,5.76-10.81,9.58Z"/>
    <path class="cls-1" d="M224.61,84.16c.22,11.64-6.44,22.94-18.54,25.04-4.34.75-7.34.61-9.46-.28v20.54c-5.79,1.01-8.69,1.52-14.48,2.53v-67.84c5.79-1.01,8.69-1.51,14.48-2.53v2.41c2.22-2.51,5.4-4.25,9.56-5.05,11.48-2.23,19.06,7.62,18.44,18.42v6.76ZM210.12,85.41v-4.25c0-7.14-1.54-10.45-6.76-9.54-5.21.91-6.76,4.75-6.76,11.9v5.7c0,5.6,1.16,9.26,6.76,8.28,5.99-1.05,6.76-5.72,6.76-12.09Z"/>
    <path class="cls-1" d="M282.63,60.44v7.14c.36,16.21-8.22,29.9-24.52,32.8-15.77,2.81-27.41-8.96-26.26-24.71v-9.08c-.89-16.59,9.89-31.83,26.26-34.76,12.15-2.18,23.16,5.2,24.52,17.79-6.1.88-9.15,1.34-15.25,2.28-.68-4.05-3.48-7.67-9.27-6.75-6.66,1.06-10.23,6.49-10.23,17.4v10.43c0,10.91,3.57,15.14,10.23,14.08,6.47-1.03,8.59-5.41,9.17-11-3.55.55-5.33.83-8.88,1.4v-13.32c9.69-1.55,14.54-2.29,24.23-3.7Z"/>
    <path class="cls-1" d="M317.39,57.76c-.87-1.35-2.22-3.22-5.02-2.89-4.15.49-6.57,3.7-6.57,10.17,0,11.01,0,16.51,0,27.51-5.79.72-8.69,1.11-14.48,1.91v-48.27c5.64-.78,8.46-1.15,14.1-1.86v3.67c1.45-2.02,4.63-5.22,10.14-5.86s9.85,1.61,12.65,6.73c-4.33,3.53-6.49,5.31-10.81,8.89Z"/>
    <path class="cls-1" d="M332.55,22.95c6.18-.6,9.27-.87,15.45-1.35v13.52c-6.18.48-9.27.75-15.45,1.35,0-5.41,0-8.11,0-13.52ZM333.03,41.25c5.79-.56,8.69-.81,14.48-1.27,0,16.09,0,32.18,0,48.27-5.79.45-8.69.71-14.48,1.27,0-16.09,0-32.18,0-48.27Z"/>
    <path class="cls-1" d="M384.2,19.72c5.79-.14,8.69-.18,14.48-.18,0,22.2,0,44.41,0,66.61-5.79,0-8.69.04-14.48.18,0-.85,0-1.27,0-2.12-2.32,1.99-5.38,3.17-9.08,3.38-11.97.67-19.41-9.54-18.92-20.81v-6.76c-.44-11.48,6.81-22.25,18.92-22.63,3.36-.11,6.47.55,9.08,2.32,0-7.99,0-11.99,0-19.98ZM384.2,64.22v-5.31c0-6.47-1.83-9.63-6.76-9.45-5.21.18-6.76,3.85-6.76,10.99v4.25c0,6.37.77,10.85,6.76,10.64,5.99-.21,6.76-4.74,6.76-11.11Z"/>
  </g>
</svg>