<?xml version="1.0" encoding="UTF-8"?>
<svg id="Layer_1" xmlns="http://www.w3.org/2000/svg" viewBox="0 0 414.01 101.86">
  <defs>
    <style>
      .cls-1 {
        fill: #231f20;
      }
    </style>
  </defs>
  <path class="cls-1" d="M34.99,69.15c-6.2.73-9.3,1.16-15.49,2.16-.32-20.83-.32-41.64,0-62.48,6.61-1.41,9.92-2.02,16.53-3.08-.48,12.61-.85,25.23-1.1,37.85,6.49-13.38,12.88-26.8,19.19-40.27,5.33-.58,7.99-.82,13.31-1.21,1.56,12.85,3.29,25.68,5.2,38.48,4.46-13.12,8.88-26.25,13.17-39.43,6.61-.2,9.92-.24,16.53-.23-7.68,21.88-15.62,43.64-23.83,65.32-6.24.12-9.35.22-15.59.54-2.25-13.69-4.41-27.39-6.3-41.13-7.04,14.57-14.27,29.05-21.61,43.47Z"/>
  <path class="cls-1" d="M116.47,37.78c3.42.13,5.13.2,8.54.37.06-.57.08-.85.14-1.42.45-4.65-.23-6.53-6.88-6.78-4.09-.16-6.07.56-8.08,2.97-3.69-2.87-5.52-4.29-9.14-7.09,4.44-5.83,10.19-7.69,20.04-7.39,11.74.36,19.52,6.76,18.04,19.2-.82,10.12-1.63,20.24-2.45,30.36-5.8-.4-8.7-.58-14.5-.89.15-1.56.23-2.34.38-3.89-1.93,2.48-4.85,4.6-10.32,4.39-9.74-.38-16.64-5.55-15.35-15.48,1.28-9.93,9.59-14.71,19.57-14.34ZM124.03,48.22c-2.64-.13-3.96-.19-6.61-.3-3.69-.15-5.87,1.02-6.22,4.15-.31,2.75,1.78,4.33,5.51,4.49,4.91.21,6.76-2.54,7.18-6.91l.14-1.42Z"/>
  <path class="cls-1" d="M173.75,37.89c-.8-1.52-2.05-3.66-4.81-3.91-4.09-.37-6.62,2.29-6.96,8.69-.58,10.9-.87,16.35-1.45,27.25-5.96-.54-8.94-.8-14.9-1.26,1.12-15.89,2.23-31.77,3.35-47.66,5.48.4,8.22.63,13.71,1.09-.08,1.45-.12,2.18-.19,3.63,1.51-1.69,4.75-4.21,10.09-3.71,5.35.49,9.47,3.59,12.07,9.24-4.32,2.65-6.51,3.98-10.91,6.64Z"/>
  <path class="cls-1" d="M230.18,56.21c.82,11.1-6.53,21.43-18.5,19.91-4.38-.55-7.56-1.49-9.73-2.97-.04,7.71-.07,11.57-.11,19.29-6.08-.66-9.12-.99-15.21-1.64.5-22.11,1-44.22,1.5-66.33,5.63.56,8.45.85,14.08,1.42,0,.96,0,1.45-.01,2.41,2.18-1.9,5.18-2.85,9.3-2.43,11.88,1.22,18.5,12.36,18.49,23.54.07,2.72.11,4.08.18,6.79ZM215.62,53.45c-.02-1.7-.03-2.55-.04-4.26-.07-7.16-1.63-10.89-6.77-11.42-5.14-.53-6.68,2.88-6.72,10.02-.01,2.28-.02,3.41-.03,5.69-.03,5.59,1.12,9.58,6.81,10.18,6.08.65,6.82-3.82,6.75-10.2Z"/>
  <path class="cls-1" d="M287.1,46.31c.27,2.9.4,4.36.67,7.26,2.02,15.68-5.66,29.15-22.51,27.8-16.46-1.31-28.41-15.24-28.07-31.73-.13-3.65-.19-5.48-.32-9.14-1.54-15.12,7.23-30.14,23.87-28.5,12.71,1.25,23.02,10.59,25.33,23.32-5.95-.29-8.92-.47-14.87-.88-.98-4.25-3.98-8.53-9.58-8.96-6.43-.49-9.62,4.08-9.03,15.1.22,4.21.34,6.32.56,10.53.59,11.02,4.47,16.23,11.23,16.77,6.56.53,8.41-3.45,8.57-8.98-3.56-.25-5.35-.38-8.91-.67-.35-5.39-.53-8.09-.88-13.48,9.57.74,14.36,1.07,23.93,1.55Z"/>
  <path class="cls-1" d="M321.67,49.02c-1.05-1.47-2.66-3.54-5.42-3.55-4.09-.02-6.12,2.89-5.34,9.48,1.11,9.35,2.23,18.7,3.34,28.06-5.96-.12-8.94-.21-14.9-.46l-5.04-49.13c5.48.2,8.22.28,13.71.36.18,1.5.27,2.24.44,3.74,1.19-1.85,3.94-4.65,9.29-4.66,5.35-.01,9.94,2.65,13.48,8.11-3.79,3.27-5.7,4.88-9.56,8.05Z"/>
  <path class="cls-1" d="M331.61,14.79c5.88-.22,8.81-.38,14.69-.81.92,5.53,1.38,8.29,2.3,13.82-5.97.43-8.96.58-14.93.8-.82-5.53-1.24-8.29-2.06-13.82ZM334.88,33.52c5.63-.21,8.45-.36,14.08-.75,2.73,16.46,5.47,32.92,8.2,49.37-5.96.39-8.94.53-14.9.72-2.46-16.45-4.92-32.9-7.39-49.34Z"/>
  <path class="cls-1" d="M380.74,9.87c5.51-.93,8.26-1.45,13.77-2.63,5.09,22.65,10.19,45.3,15.28,67.95-5.96,1.23-8.94,1.78-14.9,2.74-.18-.87-.27-1.3-.45-2.17-1.97,2.36-4.84,4.06-8.69,4.55-12.83,1.62-21.2-8.23-23.41-20.17-.49-2.77-.73-4.15-1.22-6.91-2.5-10.91,2.54-22.74,14.49-24.24,3.24-.41,6.44-.14,9.37,1.31-1.7-8.17-2.55-12.25-4.25-20.42ZM390.2,55.34c-.45-2.17-.68-3.25-1.13-5.42-1.38-6.61-3.86-9.53-8.71-8.82-5.14.75-5.96,4.56-4.55,11.87.33,1.74.5,2.61.84,4.34,1.25,6.52,2.93,11.11,9.01,10.24,6.08-.87,5.9-5.69,4.54-12.2Z"/>
</svg>